# xmcd CD database file
#
# Track frame offsets:
#	150
#	17407
#	32629
#	50481
#	65923
#	81205
#	94875
#	106695
#	120844
#	138784
#	156973
#	171111
#	189479
#	201273
#	213474
#	227103
#	241650
#	254345
#	268674
#	284666
#	298528
#	311994
#	328404
#
# Disc length: 4617 seconds
#
# Revision: 0
# Processed by: cddbd v1.5.2PL0 Copyright (c) Steve Scherf et al.
# Submitted via: Feurio! 1.68 - http://www.feurio.com
#
DISCID=53120717
DTITLE=Motown Gold - Motown Gold The 1970's Disc 3
DYEAR=1900
DGENRE=
TTITLE0=Marvin Gaye - What's Going On
TTITLE1=Diana Ross - Theme From Mahogany
TTITLE2=The Jackson 5 - I'll Be There
TTITLE3=Diana Ross - Touch Me In The Morning
TTITLE4=Michael Jackson - Got To Be There
TTITLE5=Marvin Gaye and Diana Ross - You Are Everything
TTITLE6=The Supremes - Floy Joy
TTITLE7=Four Tops - Still Water
TTITLE8=Gladys knight and The Pips - The Look Of Love
TTITLE9=Marvin Gaye - Got To Give It Up, Part 1
TTITLE10=Smokey Robinson and The Miracles - I Don't Blame You At All
TTITLE11=The Commodores - Easy
TTITLE12=The Supremes - Automatically Sunshine
TTITLE13=The Elgins - Put Yourself In My Place
TTITLE14=The Miracles - Love Machine
TTITLE15=The Supremes - Up The Ladder To The Roof
TTITLE16=The Supremes and The Four Tops - You'v Got To Have Love In Your Heart
TTITLE17=The Temptations - Take A Look Around
TTITLE18=Willie Hutch - Love Power
TTITLE19=The Jackson 5 - The Love You Save
TTITLE20=Jimmy Ruffin - I'll Say Forever My Love
TTITLE21=Syreeta - Harmour Love
TTITLE22=The Commodores - Sail On
EXTD=
EXTT0=
EXTT1=
EXTT2=
EXTT3=
EXTT4=
EXTT5=
EXTT6=
EXTT7=
EXTT8=
EXTT9=
EXTT10=
EXTT11=
EXTT12=
EXTT13=
EXTT14=
EXTT15=
EXTT16=
EXTT17=
EXTT18=
EXTT19=
EXTT20=
EXTT21=
EXTT22=
PLAYORDER=
